<svg aria-hidden="true" style="width:0;height:0;position:absolute;overflow:hidden" xmlns="http://www.w3.org/2000/svg"><defs><symbol id="icon-left" viewBox="0 0 32 32"><path stroke-linejoin="round" stroke-linecap="round" stroke-width="2.667" d="M25.333 16H6.666M16 25.334l-9.333-9.333L16 6.668"/></symbol><symbol id="icon-right" viewBox="0 0 32 32"><path stroke-linejoin="round" stroke-linecap="round" stroke-width="2.667" d="M6.667 16h18.667M16 25.334l9.333-9.333L16 6.668"/></symbol><symbol id="icon-favorite" viewBox="0 0 32 32"><path d="m16 30.583-2.24-2.24C5.44 20.983 0 16.023 0 9.943c0-4.96 3.84-8.8 8.8-8.8 2.72 0 5.44 1.28 7.2 3.36 1.76-2.08 4.48-3.36 7.2-3.36 4.96 0 8.8 3.84 8.8 8.8 0 6.08-5.44 11.04-13.76 18.4L16 30.583z"/></symbol><symbol id="icon-film" viewBox="0 0 32 32"><path fill="none" stroke-linejoin="round" stroke-linecap="round" stroke-width="2.667" d="M26.427 2.667H5.574a2.907 2.907 0 0 0-2.907 2.907v20.853a2.907 2.907 0 0 0 2.907 2.907h20.853a2.907 2.907 0 0 0 2.907-2.907V5.574a2.907 2.907 0 0 0-2.907-2.907zM9.333 2.667v26.667M22.667 2.667v26.667M2.667 16h26.667M2.667 9.333h6.667M2.667 22.667h6.667M22.667 22.667h6.667M22.667 9.333h6.667"/></symbol><symbol id="icon-points" viewBox="0 0 32 32"><path d="M2.513 15.35c0-.7.237-1.288.712-1.762.475-.488 1.119-.731 1.931-.731.825 0 1.469.244 1.931.731.475.475.713 1.062.713 1.762s-.237 1.288-.713 1.762c-.463.475-1.106.712-1.931.712-.813 0-1.456-.238-1.931-.712s-.712-1.063-.712-1.762zm10.687 0c0-.7.238-1.288.713-1.762.475-.488 1.119-.731 1.931-.731.825 0 1.469.244 1.931.731.475.475.712 1.062.712 1.762s-.238 1.288-.712 1.762c-.462.475-1.106.712-1.931.712-.812 0-1.456-.238-1.931-.712s-.713-1.063-.713-1.762zm10.687 0c0-.7.238-1.288.712-1.762.475-.488 1.119-.731 1.931-.731.825 0 1.469.244 1.931.731.475.475.712 1.062.712 1.762s-.238 1.288-.712 1.762c-.462.475-1.106.712-1.931.712-.813 0-1.456-.238-1.931-.712s-.712-1.063-.712-1.762z"/></symbol><symbol id="icon-search" viewBox="0 0 32 32"><path fill="none" stroke-linejoin="round" stroke-linecap="round" stroke-width="2.667" d="M14.667 25.333c5.891 0 10.667-4.776 10.667-10.667S20.558 3.999 14.667 3.999 4 8.775 4 14.666s4.776 10.667 10.667 10.667zM28 28.001l-5.8-5.8"/></symbol><symbol id="icon-close" viewBox="0 0 32 32"><svg width="30" height="30" fill="none"><path d="m8 8 14 14M8 22 22 8" stroke-width="2"/></svg></symbol><symbol id="icon-github" viewBox="0 0 30 30"><svg width="30" height="30"><path d="M15 3C8.373 3 3 8.373 3 15c0 5.623 3.872 10.328 9.092 11.63a1.751 1.751 0 0 1-.092-.583v-2.051h-1.508c-.821 0-1.551-.353-1.905-1.009-.393-.729-.461-1.844-1.435-2.526-.289-.227-.069-.486.264-.451.615.174 1.125.596 1.605 1.222.478.627.703.769 1.596.769.433 0 1.081-.025 1.691-.121.328-.833.895-1.6 1.588-1.962-3.996-.411-5.903-2.399-5.903-5.098 0-1.162.495-2.286 1.336-3.233-.276-.94-.623-2.857.106-3.587 1.798 0 2.885 1.166 3.146 1.481A8.993 8.993 0 0 1 15.495 9c1.036 0 2.024.174 2.922.483C18.675 9.17 19.763 8 21.565 8c.732.731.381 2.656.102 3.594.836.945 1.328 2.066 1.328 3.226 0 2.697-1.904 4.684-5.894 5.097C18.199 20.49 19 22.1 19 23.313v2.734c0 .104-.023.179-.035.268C23.641 24.676 27 20.236 27 15c0-6.627-5.373-12-12-12z"/></svg></symbol><symbol id="icon-top" viewBox="0 0 512 512" style="enable-background:new 0 0 512 512" xml:space="preserve"><path d="M508.8 278.947 263.467 35.107a10.623 10.623 0 0 0-15.04 0L3.2 279.053c-2.027 2.027-3.093 4.693-3.2 7.573v182.72c0 5.867 4.8 10.667 10.667 10.667 2.88 0 5.547-1.173 7.573-3.093L256 238.947l237.867 237.76c4.16 4.16 10.987 4.053 15.04-.107 1.92-1.92 2.987-4.587 3.093-7.36V286.52c0-2.88-1.173-5.653-3.2-7.573zm-18.133 164.48-227.2-227.093c-4.267-4.053-10.88-4.053-15.04 0L21.333 443.64V291.107L256 57.72l234.667 233.173v152.534z"/></symbol></defs></svg>